# xmcd CD database file
#
# Track frame offsets:
#	150
#	20503
#	48402
#	66800
#	85339
#	104877
#	122699
#	143144
#	160221
#	181398
#
# Disc length: 2524 seconds
#
# Revision: 0
# Processed by: cddbd v1.5.2PL0 Copyright (c) Steve Scherf et al.
# Submitted via: CDex 1.70beta2
#
DISCID=8b09da0a
DTITLE=Peter Brown - Franklin Street
DYEAR=1900
DGENRE=Jazz
TTITLE0=Atmos
TTITLE1=Forest Flower
TTITLE2=Franklin Street
TTITLE3=Spanish Lesley
TTITLE4=Jitterbug Waltz
TTITLE5=Choices We Made
TTITLE6=Never Fall for a Broken Heart
TTITLE7=Thelonius
TTITLE8=Other Half Lives
TTITLE9=Small Things of Beauty
EXTD=
EXTT0=
EXTT1=
EXTT2=
EXTT3=
EXTT4=
EXTT5=
EXTT6=
EXTT7=
EXTT8=
EXTT9=
PLAYORDER=
